<svg xmlns="http://www.w3.org/2000/svg" viewBox="0 0 67 64">
  <path fill="#FF6F79" d="M43.38,0,60,12l6.33,19.48L60,51,43.38,63H22.9L6.33,51,0,31.52,6.33,12,22.9,0ZM16.13,27.26h3.72V15.42H16.13a.07.07,0,0,0-.08.08V27.18A.07.07,0,0,0,16.13,27.26Zm3.72-15.51v3.67h11.1V11.75a.07.07,0,0,0-.08-.08H19.93A.07.07,0,0,0,19.85,11.75Zm0,19.17a.07.07,0,0,0,.08.08H30.87a.07.07,0,0,0,.08-.08V27.26H19.85ZM34.7,27.26a.07.07,0,0,0,.08-.08V15.5a.07.07,0,0,0-.08-.08H31V27.26Zm18,8.7-2.54,1.89a.17.17,0,0,1-.11,0l-4-.05a.16.16,0,0,1-.11,0l-3.12-2.3s-.08-.06-.08-.08l-1.2-3.67v-.11L42.7,28s.06-.05.08-.08l3.12-2.33a.16.16,0,0,1,.11,0l3.86.06a.17.17,0,0,1,.11,0l2.41,1.78a.08.08,0,0,0,.11,0l2.38-2.55s0-.08,0-.11L51.15,22A.16.16,0,0,0,51,22H44.86a.16.16,0,0,0-.11,0l-5,3.67s-.08.06-.08.08L37.8,31.64v.11l1.89,5.85s.05.06.08.08l5,3.64a.16.16,0,0,0,.11,0h6.51a.17.17,0,0,0,.11,0L55,38.75s.06-.05,0-.11L52.82,36C52.79,35.91,52.74,35.94,52.71,36ZM25.4,34a8.84,8.84,0,1,0,8.84,8.84A8.84,8.84,0,0,0,25.4,34Zm0,13.88a5,5,0,1,1,5-5A5,5,0,0,1,25.4,47.9Z"/>
</svg>
